<mxfile host="Electron" agent="Mozilla/5.0 (Windows NT 10.0; Win64; x64) AppleWebKit/537.36 (KHTML, like Gecko) draw.io/27.0.9 Chrome/134.0.6998.205 Electron/35.4.0 Safari/537.36" version="27.0.9">
  <diagram name="Pagina-1" id="7yON9PZLDEK_jJ4scHUi">
    <mxGraphModel dx="3058" dy="927" grid="1" gridSize="10" guides="1" tooltips="1" connect="1" arrows="1" fold="1" page="1" pageScale="1" pageWidth="827" pageHeight="1169" math="0" shadow="0">
      <root>
        <mxCell id="pvNqzAYkV5JUMJPB61iD-0" />
        <mxCell id="pvNqzAYkV5JUMJPB61iD-1" parent="pvNqzAYkV5JUMJPB61iD-0" />
        <mxCell id="I-rEsV5hDAlXYg_BPuM8-9" value="" style="perimeter=ellipsePerimeter;verticalLabelPosition=bottom;shadow=0;dashed=0;align=center;html=1;verticalAlign=top;shape=mxgraph.electrical.instruments.oscilloscope;strokeWidth=1.1810999999999998;rounded=0;" parent="pvNqzAYkV5JUMJPB61iD-1" vertex="1">
          <mxGeometry x="-770.9999999999999" y="1236" width="60" height="50" as="geometry" />
        </mxCell>
        <mxCell id="pvNqzAYkV5JUMJPB61iD-5" value="" style="rounded=0;whiteSpace=wrap;html=1;strokeWidth=1.9685;rotation=-90;" parent="pvNqzAYkV5JUMJPB61iD-1" vertex="1">
          <mxGeometry x="-863.37" y="766" width="308.75" height="120" as="geometry" />
        </mxCell>
        <mxCell id="S8K7s6ATn0HfOe7maU_p-14" value="" style="rounded=0;whiteSpace=wrap;html=1;dashed=1;rotation=90;" parent="pvNqzAYkV5JUMJPB61iD-1" vertex="1">
          <mxGeometry x="-1186.8600000000001" y="777.83" width="418.17" height="215.43" as="geometry" />
        </mxCell>
        <mxCell id="S8K7s6ATn0HfOe7maU_p-1" style="edgeStyle=orthogonalEdgeStyle;rounded=0;orthogonalLoop=1;jettySize=auto;html=1;exitX=0.5;exitY=0;exitDx=0;exitDy=0;entryX=0.43;entryY=0.014;entryDx=0;entryDy=0;entryPerimeter=0;strokeWidth=3.1496;endSize=7.874;endArrow=block;endFill=1;" parent="pvNqzAYkV5JUMJPB61iD-1" source="pvNqzAYkV5JUMJPB61iD-5" edge="1">
          <mxGeometry relative="1" as="geometry">
            <mxPoint x="-999.5" y="872" as="targetPoint" />
            <mxPoint x="-614.5" y="826" as="sourcePoint" />
            <Array as="points">
              <mxPoint x="-1000" y="826" />
            </Array>
          </mxGeometry>
        </mxCell>
        <mxCell id="pvNqzAYkV5JUMJPB61iD-7" value="" style="pointerEvents=1;verticalLabelPosition=bottom;shadow=0;dashed=0;align=center;html=1;verticalAlign=top;shape=mxgraph.electrical.inductors.magnetic_core;direction=north;strokeWidth=1.9685;rounded=0;" parent="pvNqzAYkV5JUMJPB61iD-1" vertex="1">
          <mxGeometry x="-1050" y="790" width="120" height="7.87" as="geometry" />
        </mxCell>
        <mxCell id="S8K7s6ATn0HfOe7maU_p-45" style="edgeStyle=orthogonalEdgeStyle;orthogonalLoop=1;jettySize=auto;html=1;exitX=0;exitY=0.8;exitDx=0;exitDy=0;endArrow=oval;endFill=0;endSize=7.874;strokeWidth=3.1496;rounded=0;" parent="pvNqzAYkV5JUMJPB61iD-1" source="pvNqzAYkV5JUMJPB61iD-8" edge="1">
          <mxGeometry relative="1" as="geometry">
            <mxPoint x="-1230" y="770" as="targetPoint" />
          </mxGeometry>
        </mxCell>
        <mxCell id="pvNqzAYkV5JUMJPB61iD-8" value="" style="pointerEvents=1;verticalLabelPosition=bottom;shadow=0;dashed=0;align=center;html=1;verticalAlign=top;shape=mxgraph.electrical.electro-mechanical.circuitBreaker2;elSwitchState=off;strokeWidth=3.1496;rounded=0;" parent="pvNqzAYkV5JUMJPB61iD-1" vertex="1">
          <mxGeometry x="-1200" y="745" width="90" height="30.314899999999998" as="geometry" />
        </mxCell>
        <mxCell id="S8K7s6ATn0HfOe7maU_p-64" style="edgeStyle=orthogonalEdgeStyle;orthogonalLoop=1;jettySize=auto;html=1;exitX=1;exitY=0.645;exitDx=0;exitDy=0;exitPerimeter=0;rounded=0;strokeWidth=3.1496;startArrow=none;startFill=0;endArrow=none;" parent="pvNqzAYkV5JUMJPB61iD-1" source="pvNqzAYkV5JUMJPB61iD-10" edge="1">
          <mxGeometry relative="1" as="geometry">
            <mxPoint x="50" y="641" as="targetPoint" />
            <Array as="points">
              <mxPoint x="9" y="640" />
              <mxPoint x="57" y="640" />
            </Array>
          </mxGeometry>
        </mxCell>
        <mxCell id="pvNqzAYkV5JUMJPB61iD-10" value="" style="pointerEvents=1;verticalLabelPosition=bottom;shadow=0;dashed=0;align=center;html=1;verticalAlign=top;shape=mxgraph.electrical.inductors.inductor_5;strokeWidth=3;container=0;rounded=0;direction=north;" parent="pvNqzAYkV5JUMJPB61iD-1" vertex="1">
          <mxGeometry x="-10" y="770" width="30" height="140" as="geometry" />
        </mxCell>
        <mxCell id="pvNqzAYkV5JUMJPB61iD-16" value="&lt;font style=&quot;font-size: 24px&quot; face=&quot;Verdana&quot;&gt;s&lt;/font&gt;" style="text;html=1;strokeColor=none;fillColor=none;align=center;verticalAlign=middle;whiteSpace=wrap;rounded=0;dashed=1;container=0;" parent="pvNqzAYkV5JUMJPB61iD-1" vertex="1">
          <mxGeometry x="29.49000000000001" y="611" width="40" height="20" as="geometry" />
        </mxCell>
        <mxCell id="pvNqzAYkV5JUMJPB61iD-17" value="&lt;font style=&quot;font-size: 24px&quot; face=&quot;Verdana&quot;&gt;C&lt;/font&gt;" style="text;html=1;strokeColor=none;fillColor=none;align=center;verticalAlign=middle;whiteSpace=wrap;rounded=0;dashed=1;container=0;" parent="pvNqzAYkV5JUMJPB61iD-1" vertex="1">
          <mxGeometry x="10" y="761" width="40" height="20" as="geometry" />
        </mxCell>
        <mxCell id="pvNqzAYkV5JUMJPB61iD-18" value="&lt;font style=&quot;font-size: 24px&quot; face=&quot;Verdana&quot;&gt;D&lt;/font&gt;" style="text;html=1;strokeColor=none;fillColor=none;align=center;verticalAlign=middle;whiteSpace=wrap;rounded=0;dashed=1;container=0;" parent="pvNqzAYkV5JUMJPB61iD-1" vertex="1">
          <mxGeometry x="10" y="896.31" width="40" height="20" as="geometry" />
        </mxCell>
        <mxCell id="pvNqzAYkV5JUMJPB61iD-29" value="" style="perimeter=ellipsePerimeter;verticalLabelPosition=bottom;shadow=0;dashed=0;align=center;html=1;verticalAlign=top;shape=mxgraph.electrical.instruments.oscilloscope;strokeWidth=1.9685;rounded=0;" parent="pvNqzAYkV5JUMJPB61iD-1" vertex="1">
          <mxGeometry x="234" y="1109.06" width="90" height="90" as="geometry" />
        </mxCell>
        <mxCell id="S8K7s6ATn0HfOe7maU_p-74" style="edgeStyle=orthogonalEdgeStyle;orthogonalLoop=1;jettySize=auto;html=1;exitX=1;exitY=0.8;exitDx=0;exitDy=0;endArrow=oval;endFill=0;strokeWidth=3.1496;startSize=5.9055;targetPerimeterSpacing=-1.9685;endSize=9.8425;" parent="pvNqzAYkV5JUMJPB61iD-1" source="pvNqzAYkV5JUMJPB61iD-39" edge="1">
          <mxGeometry relative="1" as="geometry">
            <mxPoint x="410" y="681" as="targetPoint" />
          </mxGeometry>
        </mxCell>
        <mxCell id="pvNqzAYkV5JUMJPB61iD-39" value="" style="html=1;shape=mxgraph.electrical.electro-mechanical.singleSwitch;aspect=fixed;elSwitchState=off;strokeWidth=3.1496;direction=east;rounded=0;" parent="pvNqzAYkV5JUMJPB61iD-1" vertex="1">
          <mxGeometry x="301.30000000000007" y="665" width="75" height="20" as="geometry" />
        </mxCell>
        <mxCell id="S8K7s6ATn0HfOe7maU_p-77" style="edgeStyle=orthogonalEdgeStyle;orthogonalLoop=1;jettySize=auto;html=1;exitX=1;exitY=0.5;exitDx=0;exitDy=0;endArrow=oval;endFill=1;endSize=9.8425;strokeWidth=3.1496;" parent="pvNqzAYkV5JUMJPB61iD-1" source="pvNqzAYkV5JUMJPB61iD-40" edge="1">
          <mxGeometry relative="1" as="geometry">
            <mxPoint x="188.0476190476188" y="1001" as="targetPoint" />
          </mxGeometry>
        </mxCell>
        <mxCell id="S8K7s6ATn0HfOe7maU_p-78" style="edgeStyle=orthogonalEdgeStyle;orthogonalLoop=1;jettySize=auto;html=1;exitX=0;exitY=0.5;exitDx=0;exitDy=0;endArrow=oval;endFill=1;endSize=9.8425;strokeWidth=3.1496;" parent="pvNqzAYkV5JUMJPB61iD-1" source="pvNqzAYkV5JUMJPB61iD-40" edge="1">
          <mxGeometry relative="1" as="geometry">
            <mxPoint x="188.0476190476188" y="681" as="targetPoint" />
          </mxGeometry>
        </mxCell>
        <mxCell id="pvNqzAYkV5JUMJPB61iD-40" value="&lt;font face=&quot;Verdana&quot;&gt;&lt;span style=&quot;font-size: 25px;&quot;&gt;V&lt;/span&gt;&lt;/font&gt;" style="ellipse;whiteSpace=wrap;html=1;aspect=fixed;fontFamily=Times New Roman;strokeWidth=3.1496;container=0;rounded=0;rotation=90;" parent="pvNqzAYkV5JUMJPB61iD-1" vertex="1">
          <mxGeometry x="159" y="810" width="60" height="60" as="geometry" />
        </mxCell>
        <mxCell id="pvNqzAYkV5JUMJPB61iD-41" value="&lt;font style=&quot;font-size: 24px&quot; face=&quot;Verdana&quot;&gt;+&lt;/font&gt;" style="text;html=1;strokeColor=none;fillColor=none;align=center;verticalAlign=middle;whiteSpace=wrap;rounded=0;dashed=1;container=0;" parent="pvNqzAYkV5JUMJPB61iD-1" vertex="1">
          <mxGeometry x="194" y="775.31" width="40" height="20" as="geometry" />
        </mxCell>
        <mxCell id="pvNqzAYkV5JUMJPB61iD-42" value="&lt;font style=&quot;font-size: 24px&quot; face=&quot;Verdana&quot;&gt;-&lt;/font&gt;" style="text;html=1;strokeColor=none;fillColor=none;align=center;verticalAlign=middle;whiteSpace=wrap;rounded=0;dashed=1;container=0;rotation=90;" parent="pvNqzAYkV5JUMJPB61iD-1" vertex="1">
          <mxGeometry x="194" y="876" width="40" height="20" as="geometry" />
        </mxCell>
        <mxCell id="pvNqzAYkV5JUMJPB61iD-49" value="&lt;font style=&quot;font-size: 24px&quot; face=&quot;Verdana&quot;&gt;220V&lt;/font&gt;" style="text;html=1;strokeColor=none;fillColor=none;align=center;verticalAlign=middle;whiteSpace=wrap;rounded=0;dashed=1;container=0;" parent="pvNqzAYkV5JUMJPB61iD-1" vertex="1">
          <mxGeometry x="393.29999999999995" y="830" width="40" height="20" as="geometry" />
        </mxCell>
        <mxCell id="S8K7s6ATn0HfOe7maU_p-65" style="edgeStyle=orthogonalEdgeStyle;orthogonalLoop=1;jettySize=auto;html=1;exitX=0;exitY=0.5;exitDx=0;exitDy=0;exitPerimeter=0;entryX=0;entryY=0.8;entryDx=0;entryDy=0;endArrow=none;startFill=0;strokeWidth=3.1496;" parent="pvNqzAYkV5JUMJPB61iD-1" source="pvNqzAYkV5JUMJPB61iD-57" target="pvNqzAYkV5JUMJPB61iD-39" edge="1">
          <mxGeometry relative="1" as="geometry" />
        </mxCell>
        <mxCell id="pvNqzAYkV5JUMJPB61iD-57" value="" style="pointerEvents=1;verticalLabelPosition=bottom;shadow=0;dashed=0;align=center;html=1;verticalAlign=top;shape=mxgraph.electrical.miscellaneous.fuse_2;direction=west;strokeWidth=3.1496;rounded=0;" parent="pvNqzAYkV5JUMJPB61iD-1" vertex="1">
          <mxGeometry x="221.9999999999999" y="672.53" width="80" height="16.9291" as="geometry" />
        </mxCell>
        <mxCell id="pvNqzAYkV5JUMJPB61iD-59" value="" style="verticalLabelPosition=bottom;shadow=0;dashed=0;align=center;html=1;verticalAlign=top;shape=mxgraph.electrical.rot_mech.verticalLabelPosition=bottom;shadow=0;dashed=0;align=center;fillColor=strokeColor;html=1;verticalAlign=top;strokeWidth=1.9685;shape=mxgraph.electrical.rot_mech.rotation;rotation=-206;rounded=0;" parent="pvNqzAYkV5JUMJPB61iD-1" vertex="1">
          <mxGeometry x="-103.5" y="979" width="69" height="54" as="geometry" />
        </mxCell>
        <mxCell id="pvNqzAYkV5JUMJPB61iD-70" value="" style="group;rounded=0;" parent="pvNqzAYkV5JUMJPB61iD-1" vertex="1" connectable="0">
          <mxGeometry x="-30.50999999999999" y="1118.63" width="60" height="70.86599999999999" as="geometry" />
        </mxCell>
        <mxCell id="pvNqzAYkV5JUMJPB61iD-71" value="" style="rounded=0;whiteSpace=wrap;html=1;direction=south;strokeWidth=1.9685;" parent="pvNqzAYkV5JUMJPB61iD-70" vertex="1">
          <mxGeometry x="17.00999999999999" width="25.984199999999998" height="70.866" as="geometry" />
        </mxCell>
        <mxCell id="pvNqzAYkV5JUMJPB61iD-72" value="&lt;font face=&quot;Verdana&quot;&gt;&lt;span style=&quot;font-size: 25px;&quot;&gt;DT&lt;/span&gt;&lt;/font&gt;" style="ellipse;whiteSpace=wrap;html=1;aspect=fixed;fontFamily=Times New Roman;strokeWidth=1.9685;container=0;rounded=0;" parent="pvNqzAYkV5JUMJPB61iD-70" vertex="1">
          <mxGeometry y="5.42999999999995" width="60" height="60" as="geometry" />
        </mxCell>
        <mxCell id="pvNqzAYkV5JUMJPB61iD-73" value="&lt;font face=&quot;Verdana&quot; style=&quot;font-size: 24px&quot;&gt;DT - Dínamo taquimétrico&lt;/font&gt;" style="text;html=1;strokeColor=none;fillColor=none;align=left;verticalAlign=middle;whiteSpace=wrap;rounded=0;dashed=1;container=0;" parent="pvNqzAYkV5JUMJPB61iD-1" vertex="1">
          <mxGeometry x="-762.9999999999999" y="1131" width="390" height="40.43" as="geometry" />
        </mxCell>
        <mxCell id="pvNqzAYkV5JUMJPB61iD-74" value="&lt;span style=&quot;font-family: Verdana; font-size: 24px;&quot;&gt;Sonda diferencial de tensão&lt;/span&gt;" style="text;html=1;strokeColor=none;fillColor=none;align=left;verticalAlign=middle;whiteSpace=wrap;rounded=0;dashed=1;container=0;" parent="pvNqzAYkV5JUMJPB61iD-1" vertex="1">
          <mxGeometry x="-702" y="1182.78" width="362" height="40.43" as="geometry" />
        </mxCell>
        <mxCell id="pvNqzAYkV5JUMJPB61iD-81" value="&lt;font style=&quot;font-size: 24px&quot; face=&quot;Verdana&quot;&gt;+&lt;/font&gt;" style="text;html=1;strokeColor=none;fillColor=none;align=center;verticalAlign=middle;whiteSpace=wrap;rounded=0;dashed=1;container=0;" parent="pvNqzAYkV5JUMJPB61iD-1" vertex="1">
          <mxGeometry x="-690" y="740" width="40" height="20" as="geometry" />
        </mxCell>
        <mxCell id="pvNqzAYkV5JUMJPB61iD-82" value="&lt;font style=&quot;font-size: 24px&quot; face=&quot;Verdana&quot;&gt;-&lt;/font&gt;" style="text;html=1;strokeColor=none;fillColor=none;align=center;verticalAlign=middle;whiteSpace=wrap;rounded=0;dashed=1;container=0;" parent="pvNqzAYkV5JUMJPB61iD-1" vertex="1">
          <mxGeometry x="-690" y="894.16" width="40" height="20" as="geometry" />
        </mxCell>
        <mxCell id="S8K7s6ATn0HfOe7maU_p-17" style="edgeStyle=orthogonalEdgeStyle;rounded=0;orthogonalLoop=1;jettySize=auto;html=1;exitX=0;exitY=0.645;exitDx=0;exitDy=0;exitPerimeter=0;endArrow=none;endFill=0;strokeWidth=3.1496;endSize=9.8425;startFill=0;" parent="pvNqzAYkV5JUMJPB61iD-1" source="pvNqzAYkV5JUMJPB61iD-86" edge="1">
          <mxGeometry relative="1" as="geometry">
            <mxPoint x="-1109.9999999999998" y="769.2105263157896" as="targetPoint" />
          </mxGeometry>
        </mxCell>
        <mxCell id="pvNqzAYkV5JUMJPB61iD-86" value="" style="pointerEvents=1;verticalLabelPosition=bottom;shadow=0;dashed=0;align=center;html=1;verticalAlign=top;shape=mxgraph.electrical.inductors.inductor_5;strokeWidth=3;container=0;rounded=0;" parent="pvNqzAYkV5JUMJPB61iD-1" vertex="1">
          <mxGeometry x="-1060" y="750" width="140" height="30" as="geometry" />
        </mxCell>
        <mxCell id="S8K7s6ATn0HfOe7maU_p-2" value="" style="pointerEvents=1;verticalLabelPosition=bottom;shadow=0;dashed=0;align=center;html=1;verticalAlign=top;shape=mxgraph.electrical.inductors.magnetic_core;direction=north;strokeWidth=1.9685;rounded=0;" parent="pvNqzAYkV5JUMJPB61iD-1" vertex="1">
          <mxGeometry x="-1050" y="911" width="120" height="7.87" as="geometry" />
        </mxCell>
        <mxCell id="S8K7s6ATn0HfOe7maU_p-18" style="edgeStyle=orthogonalEdgeStyle;rounded=0;orthogonalLoop=1;jettySize=auto;html=1;exitX=0;exitY=0.645;exitDx=0;exitDy=0;exitPerimeter=0;endArrow=none;endFill=0;strokeWidth=3.1496;endSize=9.8425;startFill=0;" parent="pvNqzAYkV5JUMJPB61iD-1" source="S8K7s6ATn0HfOe7maU_p-3" edge="1">
          <mxGeometry relative="1" as="geometry">
            <mxPoint x="-1109.9999999999998" y="890.2631578947369" as="targetPoint" />
          </mxGeometry>
        </mxCell>
        <mxCell id="S8K7s6ATn0HfOe7maU_p-3" value="" style="pointerEvents=1;verticalLabelPosition=bottom;shadow=0;dashed=0;align=center;html=1;verticalAlign=top;shape=mxgraph.electrical.inductors.inductor_5;strokeWidth=3;container=0;rounded=0;" parent="pvNqzAYkV5JUMJPB61iD-1" vertex="1">
          <mxGeometry x="-1060" y="871" width="140" height="30" as="geometry" />
        </mxCell>
        <mxCell id="S8K7s6ATn0HfOe7maU_p-4" style="edgeStyle=orthogonalEdgeStyle;rounded=0;orthogonalLoop=1;jettySize=auto;html=1;entryX=0.43;entryY=0.014;entryDx=0;entryDy=0;entryPerimeter=0;strokeWidth=3.1496;endSize=7.874;endArrow=block;endFill=1;exitX=0.104;exitY=-0.002;exitDx=0;exitDy=0;exitPerimeter=0;" parent="pvNqzAYkV5JUMJPB61iD-1" source="pvNqzAYkV5JUMJPB61iD-5" edge="1">
          <mxGeometry relative="1" as="geometry">
            <mxPoint x="-999.5" y="994" as="targetPoint" />
            <mxPoint x="-780" y="948" as="sourcePoint" />
            <Array as="points">
              <mxPoint x="-1000" y="948" />
            </Array>
          </mxGeometry>
        </mxCell>
        <mxCell id="S8K7s6ATn0HfOe7maU_p-5" value="" style="pointerEvents=1;verticalLabelPosition=bottom;shadow=0;dashed=0;align=center;html=1;verticalAlign=top;shape=mxgraph.electrical.inductors.magnetic_core;direction=north;strokeWidth=1.9685;rounded=0;" parent="pvNqzAYkV5JUMJPB61iD-1" vertex="1">
          <mxGeometry x="-1050" y="1034" width="120" height="7.87" as="geometry" />
        </mxCell>
        <mxCell id="S8K7s6ATn0HfOe7maU_p-8" style="edgeStyle=orthogonalEdgeStyle;rounded=0;orthogonalLoop=1;jettySize=auto;html=1;endArrow=oval;endFill=1;targetPerimeterSpacing=0;endSize=9.8425;sourcePerimeterSpacing=0;startSize=9.8425;strokeWidth=3.1496;exitX=1;exitY=0.645;exitDx=0;exitDy=0;exitPerimeter=0;" parent="pvNqzAYkV5JUMJPB61iD-1" source="S8K7s6ATn0HfOe7maU_p-6" edge="1">
          <mxGeometry relative="1" as="geometry">
            <mxPoint x="-890" y="890" as="targetPoint" />
            <mxPoint x="-890" y="990" as="sourcePoint" />
          </mxGeometry>
        </mxCell>
        <mxCell id="S8K7s6ATn0HfOe7maU_p-19" style="edgeStyle=orthogonalEdgeStyle;rounded=0;orthogonalLoop=1;jettySize=auto;html=1;exitX=0;exitY=0.645;exitDx=0;exitDy=0;exitPerimeter=0;endArrow=none;endFill=0;strokeWidth=3.1496;endSize=9.8425;startFill=0;" parent="pvNqzAYkV5JUMJPB61iD-1" source="S8K7s6ATn0HfOe7maU_p-6" edge="1">
          <mxGeometry relative="1" as="geometry">
            <mxPoint x="-1109.9999999999998" y="1013.4210526315792" as="targetPoint" />
          </mxGeometry>
        </mxCell>
        <mxCell id="S8K7s6ATn0HfOe7maU_p-6" value="" style="pointerEvents=1;verticalLabelPosition=bottom;shadow=0;dashed=0;align=center;html=1;verticalAlign=top;shape=mxgraph.electrical.inductors.inductor_5;strokeWidth=3;container=0;rounded=0;" parent="pvNqzAYkV5JUMJPB61iD-1" vertex="1">
          <mxGeometry x="-1060" y="994" width="140" height="30" as="geometry" />
        </mxCell>
        <mxCell id="S8K7s6ATn0HfOe7maU_p-7" style="edgeStyle=orthogonalEdgeStyle;rounded=0;orthogonalLoop=1;jettySize=auto;html=1;endArrow=none;startFill=0;strokeWidth=3.1496;entryX=1;entryY=0.645;entryDx=0;entryDy=0;entryPerimeter=0;exitX=1;exitY=0.645;exitDx=0;exitDy=0;exitPerimeter=0;" parent="pvNqzAYkV5JUMJPB61iD-1" source="S8K7s6ATn0HfOe7maU_p-3" target="pvNqzAYkV5JUMJPB61iD-86" edge="1">
          <mxGeometry relative="1" as="geometry">
            <mxPoint x="-890" y="870" as="sourcePoint" />
            <mxPoint x="-900" y="769" as="targetPoint" />
            <Array as="points">
              <mxPoint x="-890" y="890" />
              <mxPoint x="-890" y="769" />
            </Array>
          </mxGeometry>
        </mxCell>
        <mxCell id="S8K7s6ATn0HfOe7maU_p-9" style="edgeStyle=orthogonalEdgeStyle;rounded=0;orthogonalLoop=1;jettySize=auto;html=1;entryX=0.43;entryY=0.014;entryDx=0;entryDy=0;entryPerimeter=0;strokeWidth=3.1496;endSize=7.874;endArrow=block;endFill=1;exitX=0.891;exitY=0.003;exitDx=0;exitDy=0;exitPerimeter=0;" parent="pvNqzAYkV5JUMJPB61iD-1" source="pvNqzAYkV5JUMJPB61iD-5" edge="1">
          <mxGeometry relative="1" as="geometry">
            <mxPoint x="-999.5" y="750.97" as="targetPoint" />
            <mxPoint x="-780" y="705" as="sourcePoint" />
            <Array as="points">
              <mxPoint x="-1000" y="705" />
            </Array>
          </mxGeometry>
        </mxCell>
        <mxCell id="pvNqzAYkV5JUMJPB61iD-6" value="" style="pointerEvents=1;fillColor=strokeColor;verticalLabelPosition=bottom;shadow=0;dashed=0;align=center;html=1;verticalAlign=top;shape=mxgraph.electrical.diodes.diode;direction=east;strokeWidth=1.9685;rounded=0;" parent="pvNqzAYkV5JUMJPB61iD-1" vertex="1">
          <mxGeometry x="-748.5" y="804" width="79" height="44" as="geometry" />
        </mxCell>
        <mxCell id="pvNqzAYkV5JUMJPB61iD-83" value="&lt;font style=&quot;font-size: 24px&quot; face=&quot;Verdana&quot;&gt;L&lt;sub&gt;1&lt;/sub&gt;&lt;/font&gt;" style="text;html=1;strokeColor=none;fillColor=none;align=center;verticalAlign=middle;whiteSpace=wrap;rounded=0;dashed=1;container=0;" parent="pvNqzAYkV5JUMJPB61iD-1" vertex="1">
          <mxGeometry x="-811" y="712" width="40" height="20" as="geometry" />
        </mxCell>
        <mxCell id="pvNqzAYkV5JUMJPB61iD-84" value="&lt;font style=&quot;font-size: 24px&quot; face=&quot;Verdana&quot;&gt;L&lt;sub&gt;2&lt;/sub&gt;&lt;/font&gt;" style="text;html=1;strokeColor=none;fillColor=none;align=center;verticalAlign=middle;whiteSpace=wrap;rounded=0;dashed=1;container=0;" parent="pvNqzAYkV5JUMJPB61iD-1" vertex="1">
          <mxGeometry x="-811" y="833" width="40" height="20" as="geometry" />
        </mxCell>
        <mxCell id="pvNqzAYkV5JUMJPB61iD-85" value="&lt;font style=&quot;font-size: 24px&quot; face=&quot;Verdana&quot;&gt;L&lt;sub&gt;3&lt;/sub&gt;&lt;/font&gt;" style="text;html=1;strokeColor=none;fillColor=none;align=center;verticalAlign=middle;whiteSpace=wrap;rounded=0;dashed=1;container=0;" parent="pvNqzAYkV5JUMJPB61iD-1" vertex="1">
          <mxGeometry x="-811" y="955" width="40" height="20" as="geometry" />
        </mxCell>
        <mxCell id="S8K7s6ATn0HfOe7maU_p-15" value="&lt;font style=&quot;font-size: 24px&quot; face=&quot;Verdana&quot;&gt;AT&lt;/font&gt;" style="text;html=1;strokeColor=none;fillColor=none;align=center;verticalAlign=middle;whiteSpace=wrap;rounded=0;dashed=1;container=0;" parent="pvNqzAYkV5JUMJPB61iD-1" vertex="1">
          <mxGeometry x="-930" y="1055.57" width="60" height="40.43" as="geometry" />
        </mxCell>
        <mxCell id="S8K7s6ATn0HfOe7maU_p-16" value="&lt;font face=&quot;Verdana&quot; style=&quot;font-size: 24px&quot;&gt;AT - Autotransformador trifásico&lt;/font&gt;" style="text;html=1;strokeColor=none;fillColor=none;align=left;verticalAlign=middle;whiteSpace=wrap;rounded=0;dashed=1;container=0;" parent="pvNqzAYkV5JUMJPB61iD-1" vertex="1">
          <mxGeometry x="-760.5" y="1081" width="440.5" height="40.43" as="geometry" />
        </mxCell>
        <mxCell id="S8K7s6ATn0HfOe7maU_p-20" value="&lt;font face=&quot;Verdana&quot; style=&quot;font-size: 24px&quot;&gt;400V&lt;/font&gt;&lt;div&gt;&lt;font face=&quot;Verdana&quot; style=&quot;font-size: 24px&quot;&gt;&lt;br&gt;&lt;/font&gt;&lt;/div&gt;&lt;div&gt;&lt;font face=&quot;Verdana&quot; style=&quot;font-size: 24px&quot;&gt;50Hz&lt;/font&gt;&lt;/div&gt;" style="text;html=1;strokeColor=none;fillColor=none;align=center;verticalAlign=middle;whiteSpace=wrap;rounded=0;dashed=1;container=0;" parent="pvNqzAYkV5JUMJPB61iD-1" vertex="1">
          <mxGeometry x="-1290" y="813.79" width="60" height="148.43" as="geometry" />
        </mxCell>
        <mxCell id="S8K7s6ATn0HfOe7maU_p-39" style="edgeStyle=orthogonalEdgeStyle;orthogonalLoop=1;jettySize=auto;html=1;exitX=0;exitY=0.5;exitDx=0;exitDy=0;endArrow=oval;endFill=1;endSize=9.8425;startSize=5.1181;strokeWidth=3.1496;rounded=0;" parent="pvNqzAYkV5JUMJPB61iD-1" source="pvNqzAYkV5JUMJPB61iD-63" edge="1">
          <mxGeometry relative="1" as="geometry">
            <mxPoint x="-334.44827586206884" y="679.9999999999998" as="targetPoint" />
          </mxGeometry>
        </mxCell>
        <mxCell id="S8K7s6ATn0HfOe7maU_p-40" style="edgeStyle=orthogonalEdgeStyle;orthogonalLoop=1;jettySize=auto;html=1;exitX=1;exitY=0.5;exitDx=0;exitDy=0;endArrow=oval;endFill=1;endSize=9.8425;startSize=5.1181;strokeWidth=3.1496;rounded=0;" parent="pvNqzAYkV5JUMJPB61iD-1" source="pvNqzAYkV5JUMJPB61iD-63" edge="1">
          <mxGeometry relative="1" as="geometry">
            <mxPoint x="-334.44827586206884" y="999.9999999999998" as="targetPoint" />
          </mxGeometry>
        </mxCell>
        <mxCell id="pvNqzAYkV5JUMJPB61iD-63" value="&lt;font face=&quot;Verdana&quot;&gt;&lt;span style=&quot;font-size: 25px; line-height: 100%;&quot;&gt;V&lt;/span&gt;&lt;/font&gt;" style="ellipse;whiteSpace=wrap;html=1;aspect=fixed;fontFamily=Times New Roman;strokeWidth=3.1496;container=0;rotation=90;rounded=0;direction=east;" parent="pvNqzAYkV5JUMJPB61iD-1" vertex="1">
          <mxGeometry x="-364.31999999999994" y="809.9966666666669" width="60" height="60" as="geometry" />
        </mxCell>
        <mxCell id="pvNqzAYkV5JUMJPB61iD-64" value="&lt;font style=&quot;font-size: 24px&quot; face=&quot;Verdana&quot;&gt;+&lt;/font&gt;" style="text;html=1;strokeColor=none;fillColor=none;align=center;verticalAlign=middle;whiteSpace=wrap;rounded=0;dashed=1;container=0;rotation=-90;direction=east;" parent="pvNqzAYkV5JUMJPB61iD-1" vertex="1">
          <mxGeometry x="393.30000000000007" y="702.9966666666669" width="40" height="20" as="geometry" />
        </mxCell>
        <mxCell id="pvNqzAYkV5JUMJPB61iD-65" value="&lt;font style=&quot;font-size: 24px&quot; face=&quot;Verdana&quot;&gt;-&lt;/font&gt;" style="text;html=1;strokeColor=none;fillColor=none;align=center;verticalAlign=middle;whiteSpace=wrap;rounded=0;dashed=1;container=0;rotation=-180;direction=east;" parent="pvNqzAYkV5JUMJPB61iD-1" vertex="1">
          <mxGeometry x="393.30000000000007" y="968.9966666666669" width="40" height="20" as="geometry" />
        </mxCell>
        <mxCell id="S8K7s6ATn0HfOe7maU_p-27" style="edgeStyle=orthogonalEdgeStyle;orthogonalLoop=1;jettySize=auto;html=1;exitX=0;exitY=0.5;exitDx=0;exitDy=0;exitPerimeter=0;entryX=1;entryY=0.8;entryDx=0;entryDy=0;strokeWidth=3.1496;endArrow=none;startFill=0;rounded=0;" parent="pvNqzAYkV5JUMJPB61iD-1" source="pvNqzAYkV5JUMJPB61iD-77" target="S8K7s6ATn0HfOe7maU_p-22" edge="1">
          <mxGeometry relative="1" as="geometry">
            <mxPoint x="-500" y="903.9547738693468" as="targetPoint" />
            <Array as="points">
              <mxPoint x="-500" y="904" />
            </Array>
          </mxGeometry>
        </mxCell>
        <mxCell id="pvNqzAYkV5JUMJPB61iD-77" value="" style="pointerEvents=1;verticalLabelPosition=bottom;shadow=0;dashed=0;align=center;html=1;verticalAlign=top;shape=mxgraph.electrical.miscellaneous.fuse_2;direction=south;strokeWidth=3.1496;rotation=-90;rounded=0;" parent="pvNqzAYkV5JUMJPB61iD-1" vertex="1">
          <mxGeometry x="-490.03" y="864.9966666666669" width="16.67" height="76" as="geometry" />
        </mxCell>
        <mxCell id="S8K7s6ATn0HfOe7maU_p-0" value="" style="group;rotation=90;direction=east;rounded=0;" parent="pvNqzAYkV5JUMJPB61iD-1" vertex="1" connectable="0">
          <mxGeometry x="-224.31999999999994" y="782.9966666666669" width="130" height="114" as="geometry" />
        </mxCell>
        <mxCell id="pvNqzAYkV5JUMJPB61iD-19" value="" style="rounded=0;whiteSpace=wrap;html=1;strokeColor=#000000;strokeWidth=3;fillColor=#000000;container=0;movable=1;resizable=1;rotatable=1;deletable=1;editable=1;locked=0;connectable=1;rotation=90;" parent="S8K7s6ATn0HfOe7maU_p-0" vertex="1">
          <mxGeometry x="-3" y="37" width="130" height="40" as="geometry" />
        </mxCell>
        <mxCell id="pvNqzAYkV5JUMJPB61iD-20" value="" style="ellipse;whiteSpace=wrap;html=1;aspect=fixed;strokeColor=#000000;strokeWidth=3;fillColor=#FFFFFF;container=0;movable=1;resizable=1;rotatable=1;deletable=1;editable=1;locked=0;connectable=1;rotation=90;rounded=0;" parent="S8K7s6ATn0HfOe7maU_p-0" vertex="1">
          <mxGeometry x="8" width="114" height="114" as="geometry" />
        </mxCell>
        <mxCell id="pvNqzAYkV5JUMJPB61iD-21" value="&lt;font style=&quot;font-size: 45px&quot;&gt;M&lt;/font&gt;" style="text;html=1;strokeColor=none;fillColor=none;align=center;verticalAlign=middle;whiteSpace=wrap;rounded=0;container=0;movable=1;resizable=1;rotatable=1;deletable=1;editable=1;locked=0;connectable=1;rotation=90;" parent="S8K7s6ATn0HfOe7maU_p-0" vertex="1">
          <mxGeometry x="56" y="47" width="40" height="20" as="geometry" />
        </mxCell>
        <mxCell id="pvNqzAYkV5JUMJPB61iD-25" value="" style="endArrow=none;dashed=1;html=1;strokeWidth=3;movable=1;resizable=1;rotatable=1;deletable=1;editable=1;locked=0;connectable=1;rounded=0;" parent="S8K7s6ATn0HfOe7maU_p-0" edge="1">
          <mxGeometry width="50" height="50" relative="1" as="geometry">
            <mxPoint x="36" y="33" as="sourcePoint" />
            <mxPoint x="36" y="83" as="targetPoint" />
          </mxGeometry>
        </mxCell>
        <mxCell id="pvNqzAYkV5JUMJPB61iD-26" value="" style="endArrow=none;html=1;strokeWidth=3;movable=1;resizable=1;rotatable=1;deletable=1;editable=1;locked=0;connectable=1;rounded=0;" parent="S8K7s6ATn0HfOe7maU_p-0" edge="1">
          <mxGeometry width="50" height="50" relative="1" as="geometry">
            <mxPoint x="46" y="31" as="sourcePoint" />
            <mxPoint x="46" y="81" as="targetPoint" />
          </mxGeometry>
        </mxCell>
        <mxCell id="S8K7s6ATn0HfOe7maU_p-28" style="edgeStyle=orthogonalEdgeStyle;orthogonalLoop=1;jettySize=auto;html=1;exitX=0;exitY=0.8;exitDx=0;exitDy=0;entryX=0.25;entryY=1;entryDx=0;entryDy=0;strokeWidth=3.1496;endArrow=none;startFill=0;rounded=0;" parent="pvNqzAYkV5JUMJPB61iD-1" source="S8K7s6ATn0HfOe7maU_p-22" target="pvNqzAYkV5JUMJPB61iD-5" edge="1">
          <mxGeometry relative="1" as="geometry" />
        </mxCell>
        <mxCell id="S8K7s6ATn0HfOe7maU_p-22" value="" style="html=1;shape=mxgraph.electrical.electro-mechanical.singleSwitch;aspect=fixed;elSwitchState=off;strokeWidth=3.1496;direction=south;rotation=-90;rounded=0;" parent="pvNqzAYkV5JUMJPB61iD-1" vertex="1">
          <mxGeometry x="-570" y="859.02" width="20.27" height="75.9841" as="geometry" />
        </mxCell>
        <mxCell id="S8K7s6ATn0HfOe7maU_p-29" style="edgeStyle=orthogonalEdgeStyle;orthogonalLoop=1;jettySize=auto;html=1;exitX=0;exitY=0.5;exitDx=0;exitDy=0;exitPerimeter=0;entryX=1;entryY=0.8;entryDx=0;entryDy=0;strokeWidth=3.1496;endArrow=none;startFill=0;rounded=0;" parent="pvNqzAYkV5JUMJPB61iD-1" source="S8K7s6ATn0HfOe7maU_p-30" target="S8K7s6ATn0HfOe7maU_p-32" edge="1">
          <mxGeometry relative="1" as="geometry">
            <mxPoint x="-500" y="749.9547738693468" as="targetPoint" />
            <Array as="points">
              <mxPoint x="-500" y="750" />
            </Array>
          </mxGeometry>
        </mxCell>
        <mxCell id="S8K7s6ATn0HfOe7maU_p-30" value="" style="pointerEvents=1;verticalLabelPosition=bottom;shadow=0;dashed=0;align=center;html=1;verticalAlign=top;shape=mxgraph.electrical.miscellaneous.fuse_2;direction=south;strokeWidth=3.1496;rotation=-90;rounded=0;" parent="pvNqzAYkV5JUMJPB61iD-1" vertex="1">
          <mxGeometry x="-490.03" y="710.9966666666669" width="16.67" height="76" as="geometry" />
        </mxCell>
        <mxCell id="S8K7s6ATn0HfOe7maU_p-31" style="edgeStyle=orthogonalEdgeStyle;orthogonalLoop=1;jettySize=auto;html=1;exitX=0;exitY=0.8;exitDx=0;exitDy=0;entryX=0.25;entryY=1;entryDx=0;entryDy=0;strokeWidth=3.1496;endArrow=none;startFill=0;rounded=0;" parent="pvNqzAYkV5JUMJPB61iD-1" source="S8K7s6ATn0HfOe7maU_p-32" edge="1">
          <mxGeometry relative="1" as="geometry">
            <mxPoint x="-649" y="749" as="targetPoint" />
          </mxGeometry>
        </mxCell>
        <mxCell id="S8K7s6ATn0HfOe7maU_p-32" value="" style="html=1;shape=mxgraph.electrical.electro-mechanical.singleSwitch;aspect=fixed;elSwitchState=off;strokeWidth=3.1496;direction=south;rotation=-90;rounded=0;" parent="pvNqzAYkV5JUMJPB61iD-1" vertex="1">
          <mxGeometry x="-570" y="705.02" width="20.27" height="75.9841" as="geometry" />
        </mxCell>
        <mxCell id="S8K7s6ATn0HfOe7maU_p-34" style="edgeStyle=orthogonalEdgeStyle;orthogonalLoop=1;jettySize=auto;html=1;exitX=0;exitY=0.5;exitDx=0;exitDy=0;rounded=0;curved=0;entryX=1;entryY=0.5;entryDx=0;entryDy=0;entryPerimeter=0;endArrow=none;startFill=0;strokeWidth=3.1496;" parent="pvNqzAYkV5JUMJPB61iD-1" source="pvNqzAYkV5JUMJPB61iD-19" target="S8K7s6ATn0HfOe7maU_p-30" edge="1">
          <mxGeometry relative="1" as="geometry">
            <mxPoint x="-350" y="660" as="targetPoint" />
            <Array as="points">
              <mxPoint x="-162" y="680" />
              <mxPoint x="-390" y="680" />
              <mxPoint x="-390" y="749" />
            </Array>
          </mxGeometry>
        </mxCell>
        <mxCell id="S8K7s6ATn0HfOe7maU_p-35" style="edgeStyle=orthogonalEdgeStyle;orthogonalLoop=1;jettySize=auto;html=1;exitX=1;exitY=0.5;exitDx=0;exitDy=0;entryX=1;entryY=0.5;entryDx=0;entryDy=0;entryPerimeter=0;rounded=0;curved=0;endArrow=none;startFill=0;strokeWidth=3.1496;" parent="pvNqzAYkV5JUMJPB61iD-1" source="pvNqzAYkV5JUMJPB61iD-19" target="pvNqzAYkV5JUMJPB61iD-77" edge="1">
          <mxGeometry relative="1" as="geometry">
            <Array as="points">
              <mxPoint x="-162" y="1000" />
              <mxPoint x="-390" y="1000" />
              <mxPoint x="-390" y="903" />
            </Array>
          </mxGeometry>
        </mxCell>
        <mxCell id="pvNqzAYkV5JUMJPB61iD-24" value="&lt;font face=&quot;Verdana&quot;&gt;&lt;span style=&quot;font-size: 25px; line-height: 100%;&quot;&gt;A&lt;/span&gt;&lt;/font&gt;" style="ellipse;whiteSpace=wrap;html=1;aspect=fixed;fontFamily=Times New Roman;strokeWidth=3.1496;container=0;rotation=0;rounded=0;direction=south;" parent="pvNqzAYkV5JUMJPB61iD-1" vertex="1">
          <mxGeometry x="-269.9999999999999" y="650.9966666666669" width="60" height="60" as="geometry" />
        </mxCell>
        <mxCell id="S8K7s6ATn0HfOe7maU_p-47" style="edgeStyle=orthogonalEdgeStyle;orthogonalLoop=1;jettySize=auto;html=1;exitX=0;exitY=0.8;exitDx=0;exitDy=0;strokeWidth=3.1496;endArrow=oval;endFill=0;endSize=7.874;rounded=0;" parent="pvNqzAYkV5JUMJPB61iD-1" source="S8K7s6ATn0HfOe7maU_p-42" edge="1">
          <mxGeometry relative="1" as="geometry">
            <mxPoint x="-1230" y="890" as="targetPoint" />
          </mxGeometry>
        </mxCell>
        <mxCell id="S8K7s6ATn0HfOe7maU_p-42" value="" style="pointerEvents=1;verticalLabelPosition=bottom;shadow=0;dashed=0;align=center;html=1;verticalAlign=top;shape=mxgraph.electrical.electro-mechanical.circuitBreaker2;elSwitchState=off;strokeWidth=3.1496;rounded=0;" parent="pvNqzAYkV5JUMJPB61iD-1" vertex="1">
          <mxGeometry x="-1200" y="866" width="90" height="30.314899999999998" as="geometry" />
        </mxCell>
        <mxCell id="S8K7s6ATn0HfOe7maU_p-48" style="edgeStyle=orthogonalEdgeStyle;orthogonalLoop=1;jettySize=auto;html=1;exitX=0;exitY=0.8;exitDx=0;exitDy=0;strokeWidth=3.1496;endArrow=oval;endFill=0;endSize=7.874;rounded=0;" parent="pvNqzAYkV5JUMJPB61iD-1" source="S8K7s6ATn0HfOe7maU_p-43" edge="1">
          <mxGeometry relative="1" as="geometry">
            <mxPoint x="-1230" y="1014" as="targetPoint" />
          </mxGeometry>
        </mxCell>
        <mxCell id="S8K7s6ATn0HfOe7maU_p-43" value="" style="pointerEvents=1;verticalLabelPosition=bottom;shadow=0;dashed=0;align=center;html=1;verticalAlign=top;shape=mxgraph.electrical.electro-mechanical.circuitBreaker2;elSwitchState=off;strokeWidth=3.1496;rounded=0;" parent="pvNqzAYkV5JUMJPB61iD-1" vertex="1">
          <mxGeometry x="-1200" y="989" width="90" height="30.51175" as="geometry" />
        </mxCell>
        <mxCell id="S8K7s6ATn0HfOe7maU_p-44" value="" style="endArrow=none;dashed=1;html=1;entryX=0.559;entryY=0.376;entryDx=0;entryDy=0;entryPerimeter=0;exitX=0.546;exitY=0.255;exitDx=0;exitDy=0;exitPerimeter=0;rounded=0;strokeWidth=1.9685;" parent="pvNqzAYkV5JUMJPB61iD-1" source="S8K7s6ATn0HfOe7maU_p-43" target="pvNqzAYkV5JUMJPB61iD-8" edge="1">
          <mxGeometry width="50" height="50" relative="1" as="geometry">
            <mxPoint x="-1220" y="890" as="sourcePoint" />
            <mxPoint x="-1170" y="840" as="targetPoint" />
          </mxGeometry>
        </mxCell>
        <mxCell id="S8K7s6ATn0HfOe7maU_p-51" value="" style="curved=1;endArrow=classic;html=1;rounded=0;" parent="pvNqzAYkV5JUMJPB61iD-1" edge="1">
          <mxGeometry width="50" height="50" relative="1" as="geometry">
            <mxPoint x="-637" y="761" as="sourcePoint" />
            <mxPoint x="-637" y="891" as="targetPoint" />
            <Array as="points">
              <mxPoint x="-617" y="811" />
            </Array>
          </mxGeometry>
        </mxCell>
        <mxCell id="S8K7s6ATn0HfOe7maU_p-53" value="&lt;font face=&quot;Verdana&quot;&gt;&lt;span style=&quot;font-size: 24px;&quot;&gt;U&lt;/span&gt;&lt;/font&gt;" style="text;html=1;strokeColor=none;fillColor=none;align=center;verticalAlign=middle;whiteSpace=wrap;rounded=0;dashed=1;container=0;" parent="pvNqzAYkV5JUMJPB61iD-1" vertex="1">
          <mxGeometry x="-616.86" y="813" width="40" height="20" as="geometry" />
        </mxCell>
        <mxCell id="S8K7s6ATn0HfOe7maU_p-54" value="" style="endArrow=blockThin;startArrow=blockThin;html=1;endFill=1;startFill=1;endSize=1.9685;startSize=1.9685;strokeWidth=0.7874;rounded=0;" parent="pvNqzAYkV5JUMJPB61iD-1" edge="1">
          <mxGeometry width="50" height="50" relative="1" as="geometry">
            <mxPoint x="-614.21" y="836.79" as="sourcePoint" />
            <mxPoint x="-581.13" y="810" as="targetPoint" />
          </mxGeometry>
        </mxCell>
        <mxCell id="S8K7s6ATn0HfOe7maU_p-56" value="&lt;font style=&quot;font-size: 24px&quot; face=&quot;Verdana&quot;&gt;+&lt;/font&gt;" style="text;html=1;strokeColor=none;fillColor=none;align=center;verticalAlign=middle;whiteSpace=wrap;rounded=0;dashed=1;container=0;rotation=90;" parent="pvNqzAYkV5JUMJPB61iD-1" vertex="1">
          <mxGeometry x="-340" y="787" width="40" height="20" as="geometry" />
        </mxCell>
        <mxCell id="S8K7s6ATn0HfOe7maU_p-57" value="&lt;font style=&quot;font-size: 24px&quot; face=&quot;Verdana&quot;&gt;-&lt;/font&gt;" style="text;html=1;strokeColor=none;fillColor=none;align=center;verticalAlign=middle;whiteSpace=wrap;rounded=0;dashed=1;container=0;rotation=90;" parent="pvNqzAYkV5JUMJPB61iD-1" vertex="1">
          <mxGeometry x="-340" y="871.1599999999999" width="40" height="20" as="geometry" />
        </mxCell>
        <mxCell id="S8K7s6ATn0HfOe7maU_p-59" value="&lt;font style=&quot;font-size: 24px&quot; face=&quot;Verdana&quot;&gt;+&lt;/font&gt;" style="text;html=1;strokeColor=none;fillColor=none;align=center;verticalAlign=middle;whiteSpace=wrap;rounded=0;dashed=1;container=0;" parent="pvNqzAYkV5JUMJPB61iD-1" vertex="1">
          <mxGeometry x="-305" y="651" width="40" height="20" as="geometry" />
        </mxCell>
        <mxCell id="S8K7s6ATn0HfOe7maU_p-60" value="&lt;font style=&quot;font-size: 24px&quot; face=&quot;Verdana&quot;&gt;-&lt;/font&gt;" style="text;html=1;strokeColor=none;fillColor=none;align=center;verticalAlign=middle;whiteSpace=wrap;rounded=0;dashed=1;container=0;" parent="pvNqzAYkV5JUMJPB61iD-1" vertex="1">
          <mxGeometry x="-210" y="651" width="40" height="20" as="geometry" />
        </mxCell>
        <mxCell id="S8K7s6ATn0HfOe7maU_p-62" value="" style="group;direction=east;flipH=1;movable=1;resizable=1;rotatable=1;deletable=1;editable=1;locked=0;connectable=1;rounded=0;" parent="pvNqzAYkV5JUMJPB61iD-1" vertex="1" connectable="0">
          <mxGeometry x="35" y="641" width="125" height="50" as="geometry" />
        </mxCell>
        <mxCell id="pvNqzAYkV5JUMJPB61iD-11" style="edgeStyle=orthogonalEdgeStyle;rounded=0;orthogonalLoop=1;jettySize=auto;html=1;exitX=0.5;exitY=1;exitDx=0;exitDy=0;exitPerimeter=0;endArrow=oval;endFill=1;strokeWidth=3;endSize=5.9055;" parent="S8K7s6ATn0HfOe7maU_p-62" source="pvNqzAYkV5JUMJPB61iD-12" edge="1">
          <mxGeometry relative="1" as="geometry">
            <mxPoint x="20" as="targetPoint" />
            <Array as="points">
              <mxPoint x="50" />
              <mxPoint x="17" />
            </Array>
          </mxGeometry>
        </mxCell>
        <mxCell id="pvNqzAYkV5JUMJPB61iD-12" value="" style="pointerEvents=1;verticalLabelPosition=bottom;shadow=0;dashed=0;align=center;html=1;verticalAlign=top;shape=mxgraph.electrical.resistors.potentiometer_1;strokeWidth=3;rotation=-180;container=0;movable=1;resizable=1;rotatable=1;deletable=1;editable=1;locked=0;connectable=1;rounded=0;flipH=1;" parent="S8K7s6ATn0HfOe7maU_p-62" vertex="1">
          <mxGeometry y="10" width="100" height="40" as="geometry" />
        </mxCell>
        <mxCell id="pvNqzAYkV5JUMJPB61iD-13" value="" style="rounded=0;whiteSpace=wrap;html=1;strokeWidth=3;strokeColor=#FFFFFF;container=0;movable=1;resizable=1;rotatable=1;deletable=1;editable=1;locked=0;connectable=1;" parent="S8K7s6ATn0HfOe7maU_p-62" vertex="1">
          <mxGeometry x="-0.5" y="12" width="15.5" height="40" as="geometry" />
        </mxCell>
        <mxCell id="pvNqzAYkV5JUMJPB61iD-15" value="&lt;font style=&quot;font-size: 24px&quot; face=&quot;Verdana&quot;&gt;t&lt;/font&gt;" style="text;html=1;strokeColor=none;fillColor=none;align=center;verticalAlign=middle;whiteSpace=wrap;rounded=0;dashed=1;container=0;" parent="S8K7s6ATn0HfOe7maU_p-62" vertex="1">
          <mxGeometry x="85" width="40" height="20" as="geometry" />
        </mxCell>
        <mxCell id="S8K7s6ATn0HfOe7maU_p-66" style="edgeStyle=orthogonalEdgeStyle;orthogonalLoop=1;jettySize=auto;html=1;exitX=1;exitY=0.5;exitDx=0;exitDy=0;exitPerimeter=0;entryX=1;entryY=0.25;entryDx=0;entryDy=0;entryPerimeter=0;rounded=0;curved=0;endArrow=oval;startFill=0;strokeWidth=3.1496;endFill=1;" parent="pvNqzAYkV5JUMJPB61iD-1" source="pvNqzAYkV5JUMJPB61iD-57" target="pvNqzAYkV5JUMJPB61iD-12" edge="1">
          <mxGeometry relative="1" as="geometry" />
        </mxCell>
        <mxCell id="S8K7s6ATn0HfOe7maU_p-75" style="edgeStyle=orthogonalEdgeStyle;orthogonalLoop=1;jettySize=auto;html=1;exitX=1;exitY=0.8;exitDx=0;exitDy=0;endArrow=oval;endFill=0;strokeWidth=3.1496;startSize=5.9055;targetPerimeterSpacing=-1.9685;endSize=9.8425;" parent="pvNqzAYkV5JUMJPB61iD-1" source="S8K7s6ATn0HfOe7maU_p-67" edge="1">
          <mxGeometry relative="1" as="geometry">
            <mxPoint x="410" y="1001.1860465116279" as="targetPoint" />
          </mxGeometry>
        </mxCell>
        <mxCell id="S8K7s6ATn0HfOe7maU_p-67" value="" style="html=1;shape=mxgraph.electrical.electro-mechanical.singleSwitch;aspect=fixed;elSwitchState=off;strokeWidth=3.1496;direction=east;rounded=0;" parent="pvNqzAYkV5JUMJPB61iD-1" vertex="1">
          <mxGeometry x="301.30000000000007" y="985" width="75" height="20" as="geometry" />
        </mxCell>
        <mxCell id="S8K7s6ATn0HfOe7maU_p-68" style="edgeStyle=orthogonalEdgeStyle;orthogonalLoop=1;jettySize=auto;html=1;exitX=0;exitY=0.5;exitDx=0;exitDy=0;exitPerimeter=0;entryX=0;entryY=0.8;entryDx=0;entryDy=0;endArrow=none;startFill=0;strokeWidth=3.1496;" parent="pvNqzAYkV5JUMJPB61iD-1" source="S8K7s6ATn0HfOe7maU_p-69" target="S8K7s6ATn0HfOe7maU_p-67" edge="1">
          <mxGeometry relative="1" as="geometry" />
        </mxCell>
        <mxCell id="S8K7s6ATn0HfOe7maU_p-69" value="" style="pointerEvents=1;verticalLabelPosition=bottom;shadow=0;dashed=0;align=center;html=1;verticalAlign=top;shape=mxgraph.electrical.miscellaneous.fuse_2;direction=west;strokeWidth=3.1496;rounded=0;" parent="pvNqzAYkV5JUMJPB61iD-1" vertex="1">
          <mxGeometry x="221.9999999999999" y="992.53" width="80" height="16.9291" as="geometry" />
        </mxCell>
        <mxCell id="S8K7s6ATn0HfOe7maU_p-70" style="edgeStyle=orthogonalEdgeStyle;orthogonalLoop=1;jettySize=auto;html=1;exitX=1;exitY=0.5;exitDx=0;exitDy=0;exitPerimeter=0;entryX=0;entryY=0.645;entryDx=0;entryDy=0;entryPerimeter=0;rounded=0;curved=0;endArrow=none;startFill=0;strokeWidth=3.1496;" parent="pvNqzAYkV5JUMJPB61iD-1" source="S8K7s6ATn0HfOe7maU_p-69" target="pvNqzAYkV5JUMJPB61iD-10" edge="1">
          <mxGeometry relative="1" as="geometry">
            <mxPoint x="192" y="1001" as="targetPoint" />
          </mxGeometry>
        </mxCell>
        <mxCell id="S8K7s6ATn0HfOe7maU_p-71" value="" style="endArrow=none;dashed=1;html=1;entryX=0.882;entryY=0.145;entryDx=0;entryDy=0;entryPerimeter=0;exitX=0;exitY=0;exitDx=0;exitDy=0;strokeWidth=7.874;endSize=7.874;strokeColor=#707070;" parent="pvNqzAYkV5JUMJPB61iD-1" source="pvNqzAYkV5JUMJPB61iD-72" target="pvNqzAYkV5JUMJPB61iD-20" edge="1">
          <mxGeometry width="50" height="50" relative="1" as="geometry">
            <mxPoint x="30" y="1061" as="sourcePoint" />
            <mxPoint x="80" y="1011" as="targetPoint" />
          </mxGeometry>
        </mxCell>
        <mxCell id="S8K7s6ATn0HfOe7maU_p-76" value="" style="endArrow=none;dashed=1;html=1;entryX=0.537;entryY=0.41;entryDx=0;entryDy=0;entryPerimeter=0;exitX=0.54;exitY=0.3;exitDx=0;exitDy=0;exitPerimeter=0;strokeWidth=1.9685;" parent="pvNqzAYkV5JUMJPB61iD-1" source="S8K7s6ATn0HfOe7maU_p-67" target="pvNqzAYkV5JUMJPB61iD-39" edge="1">
          <mxGeometry width="50" height="50" relative="1" as="geometry">
            <mxPoint x="400" y="1001" as="sourcePoint" />
            <mxPoint x="450" y="951" as="targetPoint" />
          </mxGeometry>
        </mxCell>
        <mxCell id="Vv7uHsZjqjm84hMhfaPC-0" value="" style="endArrow=none;dashed=1;html=1;entryX=0.559;entryY=0.376;entryDx=0;entryDy=0;entryPerimeter=0;rounded=0;strokeWidth=1.9685;exitX=0.578;exitY=0.218;exitDx=0;exitDy=0;exitPerimeter=0;" parent="pvNqzAYkV5JUMJPB61iD-1" source="S8K7s6ATn0HfOe7maU_p-22" edge="1">
          <mxGeometry width="50" height="50" relative="1" as="geometry">
            <mxPoint x="-554" y="890" as="sourcePoint" />
            <mxPoint x="-553.62" y="738" as="targetPoint" />
          </mxGeometry>
        </mxCell>
        <mxCell id="I-rEsV5hDAlXYg_BPuM8-8" value="&lt;span style=&quot;font-family: Verdana; font-size: 24px;&quot;&gt;Oscilóscopio&lt;/span&gt;" style="text;html=1;strokeColor=none;fillColor=none;align=left;verticalAlign=middle;whiteSpace=wrap;rounded=0;dashed=1;container=0;" parent="pvNqzAYkV5JUMJPB61iD-1" vertex="1">
          <mxGeometry x="-703.03" y="1240" width="183.03" height="40.43" as="geometry" />
        </mxCell>
        <mxCell id="PKrQSJ09sg91KwME46b--2" value="" style="group" vertex="1" connectable="0" parent="pvNqzAYkV5JUMJPB61iD-1">
          <mxGeometry x="100.00279999999998" y="1125.0024999999998" width="59.05000000000001" height="59.055000000000064" as="geometry" />
        </mxCell>
        <mxCell id="I-rEsV5hDAlXYg_BPuM8-0" value="" style="ellipse;whiteSpace=wrap;html=1;aspect=fixed;fontFamily=Times New Roman;strokeWidth=1.9685;container=0;rounded=0;rotation=0;direction=south;" parent="PKrQSJ09sg91KwME46b--2" vertex="1">
          <mxGeometry width="59.05" height="59.055" as="geometry" />
        </mxCell>
        <mxCell id="I-rEsV5hDAlXYg_BPuM8-3" value="&lt;font face=&quot;Verdana&quot;&gt;&lt;span style=&quot;font-size: 25px;&quot;&gt;V&lt;/span&gt;&lt;/font&gt;" style="ellipse;whiteSpace=wrap;html=1;aspect=fixed;fontFamily=Times New Roman;strokeWidth=1.9685;container=0;rounded=0;rotation=0;direction=south;" parent="PKrQSJ09sg91KwME46b--2" vertex="1">
          <mxGeometry x="4.9950000000000045" y="4.997499999999945" width="49.06" height="49.06" as="geometry" />
        </mxCell>
        <mxCell id="PKrQSJ09sg91KwME46b--4" style="edgeStyle=orthogonalEdgeStyle;rounded=0;orthogonalLoop=1;jettySize=auto;html=1;entryX=0;entryY=0.5;entryDx=0;entryDy=0;entryPerimeter=0;strokeWidth=1.9685;endArrow=none;startFill=0;exitX=0.5;exitY=0;exitDx=0;exitDy=0;" edge="1" parent="pvNqzAYkV5JUMJPB61iD-1" source="I-rEsV5hDAlXYg_BPuM8-3" target="pvNqzAYkV5JUMJPB61iD-29">
          <mxGeometry relative="1" as="geometry" />
        </mxCell>
        <mxCell id="PKrQSJ09sg91KwME46b--5" style="edgeStyle=orthogonalEdgeStyle;rounded=0;orthogonalLoop=1;jettySize=auto;html=1;exitX=0;exitY=0.5;exitDx=0;exitDy=0;entryX=0;entryY=0.5;entryDx=0;entryDy=0;endArrow=none;startFill=0;strokeWidth=1.9685;" edge="1" parent="pvNqzAYkV5JUMJPB61iD-1" source="pvNqzAYkV5JUMJPB61iD-71" target="I-rEsV5hDAlXYg_BPuM8-0">
          <mxGeometry relative="1" as="geometry">
            <Array as="points">
              <mxPoint y="1080" />
              <mxPoint x="130" y="1080" />
            </Array>
          </mxGeometry>
        </mxCell>
        <mxCell id="PKrQSJ09sg91KwME46b--8" style="edgeStyle=orthogonalEdgeStyle;rounded=0;orthogonalLoop=1;jettySize=auto;html=1;exitX=1;exitY=0.5;exitDx=0;exitDy=0;entryX=1;entryY=0.5;entryDx=0;entryDy=0;endArrow=none;startFill=0;strokeWidth=1.9685;" edge="1" parent="pvNqzAYkV5JUMJPB61iD-1" source="pvNqzAYkV5JUMJPB61iD-71" target="I-rEsV5hDAlXYg_BPuM8-0">
          <mxGeometry relative="1" as="geometry">
            <Array as="points">
              <mxPoint y="1230" />
              <mxPoint x="130" y="1230" />
            </Array>
          </mxGeometry>
        </mxCell>
        <mxCell id="PKrQSJ09sg91KwME46b--9" value="" style="group" vertex="1" connectable="0" parent="pvNqzAYkV5JUMJPB61iD-1">
          <mxGeometry x="-760.9341000000001" y="1182.7559" width="41.338499999999954" height="41.33999999999992" as="geometry" />
        </mxCell>
        <mxCell id="I-rEsV5hDAlXYg_BPuM8-5" value="" style="ellipse;whiteSpace=wrap;html=1;aspect=fixed;fontFamily=Times New Roman;strokeWidth=1.1810999999999998;container=0;rounded=0;rotation=0;direction=south;" parent="PKrQSJ09sg91KwME46b--9" vertex="1">
          <mxGeometry width="41.338499999999996" height="41.34" as="geometry" />
        </mxCell>
        <mxCell id="I-rEsV5hDAlXYg_BPuM8-6" value="&lt;font face=&quot;Verdana&quot;&gt;&lt;span style=&quot;font-size: 25px;&quot;&gt;V&lt;/span&gt;&lt;/font&gt;" style="ellipse;whiteSpace=wrap;html=1;aspect=fixed;fontFamily=Times New Roman;strokeWidth=1.1810999999999998;container=0;rounded=0;rotation=0;direction=south;" parent="PKrQSJ09sg91KwME46b--9" vertex="1">
          <mxGeometry x="3.4492500000000064" y="3.4456250000000637" width="34.44" height="34.44875" as="geometry" />
        </mxCell>
      </root>
    </mxGraphModel>
  </diagram>
</mxfile>
